<mxfile host="Electron" modified="2023-11-15T13:15:14.935Z" agent="Mozilla/5.0 (Windows NT 10.0; Win64; x64) AppleWebKit/537.36 (KHTML, like Gecko) draw.io/22.0.3 Chrome/114.0.5735.289 Electron/25.8.4 Safari/537.36" etag="aWlfo99_GOTTX6G4NcAi" version="22.0.3" type="device">
  <diagram name="Страница — 1" id="8qEU0eRctsQ-b39IZOF6">
    <mxGraphModel dx="1418" dy="828" grid="1" gridSize="10" guides="1" tooltips="1" connect="1" arrows="1" fold="1" page="1" pageScale="1" pageWidth="1169" pageHeight="827" math="0" shadow="0">
      <root>
        <mxCell id="0" />
        <mxCell id="1" parent="0" />
        <mxCell id="eu7MMjktqyccipGJXbMi-1" value="&lt;font style=&quot;font-size: 16px;&quot; color=&quot;#212121&quot;&gt;Kubernetes Cluster&lt;/font&gt;" style="rounded=1;whiteSpace=wrap;html=1;fontFamily=VK Sans Display;strokeColor=none;arcSize=12;fillColor=#F6F7F9;spacing=10;verticalAlign=top;spacingTop=0;spacingLeft=0;spacingBottom=0;fontStyle=1;arcSize=12;absoluteArcSize=1;labelBackgroundColor=none;" parent="1" vertex="1">
          <mxGeometry x="50" y="90" width="690" height="420" as="geometry" />
        </mxCell>
        <mxCell id="eu7MMjktqyccipGJXbMi-5" value="&lt;font style=&quot;font-size: 16px;&quot; color=&quot;#212121&quot;&gt;Kafka Cluster&lt;/font&gt;" style="rounded=1;whiteSpace=wrap;html=1;fontFamily=VK Sans Display;strokeColor=#E3E8F2;arcSize=12;fillColor=#FFF;spacing=12;verticalAlign=top;spacingTop=0;strokeWidth=4;spacingLeft=0;spacingBottom=0;fontStyle=1;absoluteArcSize=1;" parent="1" vertex="1">
          <mxGeometry x="67" y="150" width="210" height="250" as="geometry" />
        </mxCell>
        <mxCell id="eu7MMjktqyccipGJXbMi-6" value="&lt;font style=&quot;font-size: 16px;&quot; color=&quot;#212121&quot;&gt;Zookeeper Cluster&lt;/font&gt;" style="rounded=1;whiteSpace=wrap;html=1;fontFamily=VK Sans Display;strokeColor=none;arcsize=12;fillColor=#F6F7F9;spacing=0;spacingTop=12;spacingBottom=12;arcSize=12;absoluteArcSize=1;" parent="1" vertex="1">
          <mxGeometry x="87" y="200" width="170" height="30" as="geometry" />
        </mxCell>
        <mxCell id="eu7MMjktqyccipGJXbMi-12" value="&lt;font style=&quot;font-size: 16px;&quot; color=&quot;#212121&quot;&gt;Kafka Broker 1&lt;/font&gt;" style="rounded=1;whiteSpace=wrap;html=1;fontFamily=VK Sans Display;strokeColor=none;arcsize=12;fillColor=#F6F7F9;spacing=0;spacingTop=12;spacingBottom=12;arcSize=12;absoluteArcSize=1;" parent="1" vertex="1">
          <mxGeometry x="87" y="250" width="170" height="30" as="geometry" />
        </mxCell>
        <mxCell id="eu7MMjktqyccipGJXbMi-13" value="&lt;font style=&quot;font-size: 16px;&quot;&gt;Kafka Broker 2&lt;/font&gt;" style="rounded=1;whiteSpace=wrap;html=1;fontFamily=VK Sans Display;strokeColor=none;arcsize=12;fillColor=#F6F7F9;spacing=0;spacingTop=12;spacingBottom=12;arcSize=12;absoluteArcSize=1;" parent="1" vertex="1">
          <mxGeometry x="87" y="300" width="170" height="30" as="geometry" />
        </mxCell>
        <mxCell id="eu7MMjktqyccipGJXbMi-14" value="&lt;font style=&quot;font-size: 16px;&quot;&gt;Kafka Broker 3&lt;/font&gt;" style="rounded=1;whiteSpace=wrap;html=1;fontFamily=VK Sans Display;strokeColor=none;arcsize=12;fillColor=#F6F7F9;spacing=0;spacingTop=12;spacingBottom=12;arcSize=12;absoluteArcSize=1;" parent="1" vertex="1">
          <mxGeometry x="87" y="350" width="170" height="30" as="geometry" />
        </mxCell>
        <mxCell id="eu7MMjktqyccipGJXbMi-15" value="&lt;font style=&quot;font-size: 16px;&quot; color=&quot;#212121&quot;&gt;Kafka Connect&lt;br&gt;&amp;nbsp;Cluster&lt;/font&gt;" style="rounded=1;whiteSpace=wrap;html=1;fontFamily=VK Sans Display;strokeColor=none;arcsize=12;fillColor=#FFFFFF;spacing=0;spacingTop=12;spacingBottom=12;arcSize=12;absoluteArcSize=1;" parent="1" vertex="1">
          <mxGeometry x="557" y="290" width="130" height="50" as="geometry" />
        </mxCell>
        <mxCell id="eu7MMjktqyccipGJXbMi-17" value="&lt;font style=&quot;font-size: 16px;&quot; color=&quot;#212121&quot;&gt;Kafka UI&lt;/font&gt;" style="rounded=1;whiteSpace=wrap;html=1;fontFamily=VK Sans Display;strokeColor=none;arcsize=12;fillColor=#FFFFFF;spacing=0;spacingTop=12;spacingBottom=12;arcSize=12;absoluteArcSize=1;" parent="1" vertex="1">
          <mxGeometry x="357" y="432.5" width="130" height="50" as="geometry" />
        </mxCell>
        <mxCell id="eu7MMjktqyccipGJXbMi-26" value="" style="shape=image;verticalLabelPosition=bottom;labelBackgroundColor=default;verticalAlign=top;aspect=fixed;imageAspect=0;image=data:image/svg+xml,PHN2ZyB4bWxucz0iaHR0cDovL3d3dy53My5vcmcvMjAwMC9zdmciIGZpbGw9Im5vbmUiIHZpZXdCb3g9IjAgMCAyMCAyMCIgaGVpZ2h0PSIyMCIgd2lkdGg9IjIwIj4mI3hhOzxwYXRoIGZpbGw9IiMxOTE5MUEiIGQ9Ik05IDIuNUM5IDMuMDUyMjggOC41NTIyOCAzLjUgOCAzLjVDNy40NDc3MiAzLjUgNyAzLjA1MjI4IDcgMi41QzcgMS45NDc3MiA3LjQ0NzcyIDEuNSA4IDEuNUM4LjU1MjI4IDEuNSA5IDEuOTQ3NzIgOSAyLjVaTTguNzUgNC44ODU1NUM5Ljc2NDI4IDQuNTY2OTggMTAuNSAzLjYxOTQxIDEwLjUgMi41QzEwLjUgMS4xMTkyOSA5LjM4MDcxIDAgOCAwQzYuNjE5MjkgMCA1LjUgMS4xMTkyOSA1LjUgMi41QzUuNSAzLjYxOTQxIDYuMjM1NzIgNC41NjY5OCA3LjI1IDQuODg1NTVWNi4wNzAyQzUuMzk5MzUgNi40MjEyNSA0IDguMDQ3MjEgNCAxMEM0IDExLjk1MjggNS4zOTkzNSAxMy41Nzg3IDcuMjUgMTMuOTI5OFYxNS4xMTQ1QzYuMjM1NzIgMTUuNDMzIDUuNSAxNi4zODA2IDUuNSAxNy41QzUuNSAxOC44ODA3IDYuNjE5MjkgMjAgOCAyMEM5LjM4MDcxIDIwIDEwLjUgMTguODgwNyAxMC41IDE3LjVDMTAuNSAxNi4zODA2IDkuNzY0MjggMTUuNDMzIDguNzUgMTUuMTE0NVYxMy45Mjk4QzkuNjc3MjEgMTMuNzUzOSAxMC40OTExIDEzLjI1OCAxMS4wNzI2IDEyLjU2MTNMMTMuMDY4NCAxMy40MTY3QzEzLjAyMzcgMTMuNjAzOCAxMyAxMy43OTkxIDEzIDE0QzEzIDE1LjM4MDcgMTQuMTE5MyAxNi41IDE1LjUgMTYuNUMxNi44ODA3IDE2LjUgMTggMTUuMzgwNyAxOCAxNEMxOCAxMi42MTkzIDE2Ljg4MDcgMTEuNSAxNS41IDExLjVDMTQuODY4NSAxMS41IDE0LjI5MTcgMTEuNzM0MiAxMy44NTE2IDEyLjEyMDRMMTEuODAzMyAxMS4yNDI1QzExLjkzMSAxMC44NTE0IDEyIDEwLjQzMzggMTIgMTBDMTIgOS43MDMxIDExLjk2NzcgOS40MTM3NSAxMS45MDYzIDkuMTM1MjhMMTMuNzAyMyA4LjIzNzI5QzE0LjE1NjggOC43MDc1OCAxNC43OTQzIDkgMTUuNSA5QzE2Ljg4MDcgOSAxOCA3Ljg4MDcxIDE4IDYuNUMxOCA1LjExOTI5IDE2Ljg4MDcgNCAxNS41IDRDMTQuMTE5MyA0IDEzIDUuMTE5MjkgMTMgNi41QzEzIDYuNjM0NjkgMTMuMDEwNyA2Ljc2Njg4IDEzLjAzMTIgNi44OTU4TDExLjMxMTUgNy43NTU2M0MxMC43MjU5IDYuODkzMjkgOS44MTIzIDYuMjcxNzEgOC43NSA2LjA3MDJWNC44ODU1NVpNMTAuNSAxMEMxMC41IDExLjM4MDcgOS4zODA3MSAxMi41IDggMTIuNUM2LjYxOTI5IDEyLjUgNS41IDExLjM4MDcgNS41IDEwQzUuNSA4LjYxOTI5IDYuNjE5MjkgNy41IDggNy41QzkuMzgwNzEgNy41IDEwLjUgOC42MTkyOSAxMC41IDEwWk0xNS41IDcuNUMxNi4wNTIzIDcuNSAxNi41IDcuMDUyMjggMTYuNSA2LjVDMTYuNSA1Ljk0NzcyIDE2LjA1MjMgNS41IDE1LjUgNS41QzE0Ljk0NzcgNS41IDE0LjUgNS45NDc3MiAxNC41IDYuNUMxNC41IDcuMDUyMjggMTQuOTQ3NyA3LjUgMTUuNSA3LjVaTTE2LjUgMTRDMTYuNSAxNC41NTIzIDE2LjA1MjMgMTUgMTUuNSAxNUMxNC45NDc3IDE1IDE0LjUgMTQuNTUyMyAxNC41IDE0QzE0LjUgMTMuNDQ3NyAxNC45NDc3IDEzIDE1LjUgMTNDMTYuMDUyMyAxMyAxNi41IDEzLjQ0NzcgMTYuNSAxNFpNOCAxOC41QzguNTUyMjggMTguNSA5IDE4LjA1MjMgOSAxNy41QzkgMTYuOTQ3NyA4LjU1MjI4IDE2LjUgOCAxNi41QzcuNDQ3NzIgMTYuNSA3IDE2Ljk0NzcgNyAxNy41QzcgMTguMDUyMyA3LjQ0NzcyIDE4LjUgOCAxOC41WiIgY2xpcC1ydWxlPSJldmVub2RkIiBmaWxsLXJ1bGU9ImV2ZW5vZGQiLz4mI3hhOzwvc3ZnPg==;" parent="1" vertex="1">
          <mxGeometry x="247" y="160" width="22" height="22" as="geometry" />
        </mxCell>
        <mxCell id="eu7MMjktqyccipGJXbMi-27" value="User" style="shape=image;verticalLabelPosition=bottom;labelBackgroundColor=default;verticalAlign=top;aspect=fixed;imageAspect=0;image=data:image/svg+xml,PHN2ZyB4bWxucz0iaHR0cDovL3d3dy53My5vcmcvMjAwMC9zdmciIGZpbGw9Im5vbmUiIHZpZXdCb3g9IjAgMCAxOSAyMSIgaGVpZ2h0PSIyMSIgd2lkdGg9IjE5Ij4mI3hhOzxwYXRoIGZpbGw9IiMyNjg4RUIiIGQ9Ik0xMi41IDUuNUMxMi41IDMuNTY2MDMgMTAuOTM0IDIgOSAyQzcuMDY2MDMgMiA1LjUgMy41NjYwMyA1LjUgNS41QzUuNSA3LjQzMzk3IDcuMDY2MDMgOSA5IDlDMTAuOTM0IDkgMTIuNSA3LjQzMzk3IDEyLjUgNS41Wk0xNC41IDUuNUMxNC41IDguNTM4NTMgMTIuMDM4NSAxMSA5IDExQzUuOTYxNDcgMTEgMy41IDguNTM4NTMgMy41IDUuNUMzLjUgMi40NjE0NyA1Ljk2MTQ3IDAgOSAwQzEyLjAzODUgMCAxNC41IDIuNDYxNDcgMTQuNSA1LjVaTTIgMTcuNjQyOUMyIDE4LjU4NjIgMS45MTk4NyAxOC41IDIuNDU1ODggMTguNUgxNi4wNDQxQzE2LjU4MDEgMTguNSAxNi41IDE4LjU4NjIgMTYuNSAxNy42NDI5QzE2LjUgMTUuMzU0NyAxMy4xOTYgMTQgOS4yNSAxNEM1LjMwNDAyIDE0IDIgMTUuMzU0NyAyIDE3LjY0MjlaTTAgMTcuNjQyOUMwIDEzLjc2MjYgNC4yOTg5MiAxMiA5LjI1IDEyQzE0LjIwMTEgMTIgMTguNSAxMy43NjI2IDE4LjUgMTcuNjQyOUMxOC41IDE5LjY1OTMgMTcuNzE4OSAyMC41IDE2LjA0NDEgMjAuNUgyLjQ1NTg4QzAuNzgxMTA5IDIwLjUgMCAxOS42NTkzIDAgMTcuNjQyOVoiLz4mI3hhOzwvc3ZnPg==;fontFamily=VK Sans Display;fontSize=16;" parent="1" vertex="1">
          <mxGeometry x="780" y="446.5" width="19" height="21" as="geometry" />
        </mxCell>
        <mxCell id="eu7MMjktqyccipGJXbMi-39" value="" style="endArrow=open;html=1;fontFamily=VK Sans Display;fontColor=#212121;rounded=0;strokeColor=#87D6E8;endFill=0;strokeWidth=2;arcSize=8;exitX=0;exitY=0.5;exitDx=0;exitDy=0;entryX=1;entryY=0.5;entryDx=0;entryDy=0;" parent="1" source="jRilrKlYuMYI4CO05IN_-7" target="eu7MMjktqyccipGJXbMi-13" edge="1">
          <mxGeometry width="50" height="50" relative="1" as="geometry">
            <mxPoint x="337" y="315" as="sourcePoint" />
            <mxPoint x="287" y="314.5" as="targetPoint" />
          </mxGeometry>
        </mxCell>
        <mxCell id="eu7MMjktqyccipGJXbMi-42" value="" style="endArrow=none;html=1;fontFamily=VK Sans Display;fontColor=#212121;rounded=1;strokeColor=#87D6E8;endFill=0;arcsize=8;startArrow=open;startFill=0;strokeWidth=2;arcSize=12;entryX=0;entryY=0.5;entryDx=0;entryDy=0;exitX=1;exitY=0.5;exitDx=0;exitDy=0;" parent="1" source="eu7MMjktqyccipGJXbMi-12" target="jRilrKlYuMYI4CO05IN_-7" edge="1">
          <mxGeometry width="50" height="50" relative="1" as="geometry">
            <mxPoint x="257" y="260" as="sourcePoint" />
            <mxPoint x="337" y="315" as="targetPoint" />
            <Array as="points">
              <mxPoint x="307" y="265" />
              <mxPoint x="307" y="315" />
            </Array>
          </mxGeometry>
        </mxCell>
        <mxCell id="eu7MMjktqyccipGJXbMi-43" value="" style="endArrow=none;html=1;fontFamily=VK Sans Display;fontColor=#212121;rounded=1;strokeColor=#87D6E8;endFill=0;arcsize=8;startArrow=open;startFill=0;strokeWidth=2;arcSize=12;entryX=0;entryY=0.5;entryDx=0;entryDy=0;exitX=1;exitY=0.5;exitDx=0;exitDy=0;" parent="1" source="eu7MMjktqyccipGJXbMi-14" target="jRilrKlYuMYI4CO05IN_-7" edge="1">
          <mxGeometry width="50" height="50" relative="1" as="geometry">
            <mxPoint x="257" y="360" as="sourcePoint" />
            <mxPoint x="337" y="315" as="targetPoint" />
            <Array as="points">
              <mxPoint x="307" y="365" />
              <mxPoint x="307" y="315" />
            </Array>
          </mxGeometry>
        </mxCell>
        <mxCell id="jRilrKlYuMYI4CO05IN_-7" value="Kafka bootstrap&#xa;load balancer" style="shape=image;verticalLabelPosition=bottom;labelBackgroundColor=none;verticalAlign=top;aspect=fixed;imageAspect=0;image=data:image/svg+xml,PHN2ZyB4bWxucz0iaHR0cDovL3d3dy53My5vcmcvMjAwMC9zdmciIGZpbGw9Im5vbmUiIHZpZXdCb3g9IjAgMCAyOCAyOCIgaGVpZ2h0PSIyOCIgd2lkdGg9IjI4Ij4mI3hhOzxwYXRoIGZpbGw9IiMwMDc3RkYiIGQ9Ik0xMi41NDE3IDhDMTIuNTQxNyAxMC40ODUzIDEwLjU4MjkgMTIuNSA4LjE2NjY4IDEyLjVDNS43NTA0MyAxMi41IDMuNzkxNjggMTAuNDg1MyAzLjc5MTY4IDhDMy43OTE2OCA1LjUxNDcyIDUuNzUwNDMgMy41IDguMTY2NjggMy41QzEwLjU4MjkgMy41IDEyLjU0MTcgNS41MTQ3MiAxMi41NDE3IDhaTTEwLjM1NDIgOEMxMC4zNTQyIDkuMjQyNjQgOS4zNzQ4IDEwLjI1IDguMTY2NjggMTAuMjVDNi45NTg1NSAxMC4yNSA1Ljk3OTE4IDkuMjQyNjQgNS45NzkxOCA4QzUuOTc5MTggNi43NTczNiA2Ljk1ODU1IDUuNzUgOC4xNjY2OCA1Ljc1QzkuMzc0OCA1Ljc1IDEwLjM1NDIgNi43NTczNiAxMC4zNTQyIDhaIiBjbGlwLXJ1bGU9ImV2ZW5vZGQiIGZpbGwtcnVsZT0iZXZlbm9kZCIvPiYjeGE7PHBhdGggZmlsbD0iIzAwNzdGRiIgZD0iTTE5LjgzMzMgMTIuNUMyMi4yNDk2IDEyLjUgMjQuMjA4MyAxMC40ODUzIDI0LjIwODMgOEMyNC4yMDgzIDUuNTE0NzIgMjIuMjQ5NiAzLjUgMTkuODMzMyAzLjVDMTcuNDE3MSAzLjUgMTUuNDU4MyA1LjUxNDcyIDE1LjQ1ODMgOEMxNS40NTgzIDEwLjQ4NTMgMTcuNDE3MSAxMi41IDE5LjgzMzMgMTIuNVpNMjIuMDIwOCA4QzIyLjAyMDggOS4yNDI2NCAyMS4wNDE1IDEwLjI1IDE5LjgzMzMgMTAuMjVDMTguNjI1MiAxMC4yNSAxNy42NDU4IDkuMjQyNjQgMTcuNjQ1OCA4QzE3LjY0NTggNi43NTczNiAxOC42MjUyIDUuNzUgMTkuODMzMyA1Ljc1QzIxLjA0MTUgNS43NSAyMi4wMjA4IDYuNzU3MzYgMjIuMDIwOCA4WiIgY2xpcC1ydWxlPSJldmVub2RkIiBmaWxsLXJ1bGU9ImV2ZW5vZGQiLz4mI3hhOzxwYXRoIGZpbGw9IiMwMDc3RkYiIGQ9Ik0xOS44MzMzIDEyLjVIOC4xNjY2OEgzLjQyNzA5QzIuODIzMDMgMTIuNSAyLjMzMzM0IDEzLjAwMzcgMi4zMzMzNCAxMy42MjVDMi4zMzMzNCAxNC4yNDYzIDIuODIzMDMgMTQuNzUgMy40MjcwOSAxNC43NUgyNC41NzI5QzI1LjE3NyAxNC43NSAyNS42NjY3IDE0LjI0NjMgMjUuNjY2NyAxMy42MjVDMjUuNjY2NyAxMy4wMDM3IDI1LjE3NyAxMi41IDI0LjU3MjkgMTIuNUgxOS44MzMzWiIvPiYjeGE7PHBhdGggZmlsbD0iIzAwNzdGRiIgZD0iTTEyLjczNyAxNS41QzEzLjI5ODMgMTQuNSAxNC43MDE2IDE0LjUgMTUuMjYyOSAxNS41TDE5LjA1MTggMjIuMjVDMTkuNjEzMSAyMy4yNSAxOC45MTE1IDI0LjUgMTcuNzg4OCAyNC41SDEwLjIxMTFDOS4wODg0OCAyNC41IDguMzg2ODQgMjMuMjUgOC45NDgxNSAyMi4yNUwxMi43MzcgMTUuNVpNMTEuNDc0MSAyMi4yNUwxNCAxNy43NUwxNi41MjU5IDIyLjI1SDExLjQ3NDFaIiBjbGlwLXJ1bGU9ImV2ZW5vZGQiIGZpbGwtcnVsZT0iZXZlbm9kZCIvPiYjeGE7PC9zdmc+;fontFamily=VK Sans Display;fontSize=16;spacing=2;spacingTop=-6;" parent="1" vertex="1">
          <mxGeometry x="408" y="301" width="28" height="28" as="geometry" />
        </mxCell>
        <mxCell id="jRilrKlYuMYI4CO05IN_-11" value="Producers / &#xa;Consumers" style="shape=image;verticalLabelPosition=bottom;labelBackgroundColor=default;verticalAlign=top;aspect=fixed;imageAspect=0;image=data:image/svg+xml,PHN2ZyB4bWxucz0iaHR0cDovL3d3dy53My5vcmcvMjAwMC9zdmciIGZpbGw9Im5vbmUiIHZpZXdCb3g9IjAgMCAyOCAyOCIgaGVpZ2h0PSIyOCIgd2lkdGg9IjI4Ij4mI3hhOzxwYXRoIGZpbGw9IiMyNjg4RUIiIGQ9Ik05LjExNTYzIDE1QzEwLjE4MSAxNSAxMC43MzkyIDE1LjEwNzggMTEuMzIwNSAxNS40MTg3QzExLjg2MTUgMTUuNzA4IDEyLjI5MiAxNi4xMzg1IDEyLjU4MTMgMTYuNjc5NUMxMi44OTIyIDE3LjI2MDggMTMgMTcuODE5IDEzIDE4Ljg4NDRWMjEuMTE1NkMxMyAyMi4xODEgMTIuODkyMiAyMi43MzkyIDEyLjU4MTMgMjMuMzIwNkMxMi4yOTIgMjMuODYxNSAxMS44NjE1IDI0LjI5MiAxMS4zMjA1IDI0LjU4MTNDMTAuNzM5MiAyNC44OTIyIDEwLjE4MSAyNSA5LjExNTYzIDI1SDYuODg0MzdDNS44MTg5OSAyNSA1LjI2MDgzIDI0Ljg5MjIgNC42Nzk0NSAyNC41ODEzQzQuMTM4NTEgMjQuMjkyIDMuNzA4MDEgMjMuODYxNSAzLjQxODcxIDIzLjMyMDZDMy4xMDc3OSAyMi43MzkyIDMgMjIuMTgxIDMgMjEuMTE1NlYxOC44ODQ0QzMgMTcuODE5IDMuMTA3NzkgMTcuMjYwOCAzLjQxODcxIDE2LjY3OTVDMy43MDgwMSAxNi4xMzg1IDQuMTM4NTEgMTUuNzA4IDQuNjc5NDUgMTUuNDE4N0M1LjI2MDgzIDE1LjEwNzggNS44MTg5OSAxNSA2Ljg4NDM3IDE1SDkuMTE1NjNaTTIxLjExNTYgMTVDMjIuMTgxIDE1IDIyLjczOTIgMTUuMTA3OCAyMy4zMjA2IDE1LjQxODdDMjMuODYxNSAxNS43MDggMjQuMjkyIDE2LjEzODUgMjQuNTgxMyAxNi42Nzk1QzI0Ljg5MjIgMTcuMjYwOCAyNSAxNy44MTkgMjUgMTguODg0NFYyMS4xMTU2QzI1IDIyLjE4MSAyNC44OTIyIDIyLjczOTIgMjQuNTgxMyAyMy4zMjA2QzI0LjI5MiAyMy44NjE1IDIzLjg2MTUgMjQuMjkyIDIzLjMyMDYgMjQuNTgxM0MyMi43MzkyIDI0Ljg5MjIgMjIuMTgxIDI1IDIxLjExNTYgMjVIMTguODg0NEMxNy44MTkgMjUgMTcuMjYwOCAyNC44OTIyIDE2LjY3OTQgMjQuNTgxM0MxNi4xMzg1IDI0LjI5MiAxNS43MDggMjMuODYxNSAxNS40MTg3IDIzLjMyMDZDMTUuMTA3OCAyMi43MzkyIDE1IDIyLjE4MSAxNSAyMS4xMTU2VjE4Ljg4NDRDMTUgMTcuODE5IDE1LjEwNzggMTcuMjYwOCAxNS40MTg3IDE2LjY3OTVDMTUuNzA4IDE2LjEzODUgMTYuMTM4NSAxNS43MDggMTYuNjc5NCAxNS40MTg3QzE3LjI2MDggMTUuMTA3OCAxNy44MTkgMTUgMTguODg0NCAxNUgyMS4xMTU2Wk05LjExNTYzIDE3SDYuODg0MzdDNi4xMjA5MiAxNyA1Ljg3NDY4IDE3LjA0NzYgNS42MjI2NSAxNy4xODIzQzUuNDMwMjUgMTcuMjg1MiA1LjI4NTIzIDE3LjQzMDMgNS4xODIzNCAxNy42MjI3QzUuMDQ3NTUgMTcuODc0NyA1IDE4LjEyMDkgNSAxOC44ODQ0VjIxLjExNTZDNSAyMS44NzkxIDUuMDQ3NTUgMjIuMTI1MyA1LjE4MjM0IDIyLjM3NzRDNS4yODUyMyAyMi41Njk4IDUuNDMwMjUgMjIuNzE0OCA1LjYyMjY1IDIyLjgxNzdDNS44NzQ2OCAyMi45NTI1IDYuMTIwOTIgMjMgNi44ODQzNyAyM0g5LjExNTYzQzkuODc5MDggMjMgMTAuMTI1MyAyMi45NTI1IDEwLjM3NzQgMjIuODE3N0MxMC41Njk4IDIyLjcxNDggMTAuNzE0OCAyMi41Njk4IDEwLjgxNzcgMjIuMzc3NEMxMC45NTI0IDIyLjEyNTMgMTEgMjEuODc5MSAxMSAyMS4xMTU2VjE4Ljg4NDRDMTEgMTguMTIwOSAxMC45NTI0IDE3Ljg3NDcgMTAuODE3NyAxNy42MjI3QzEwLjcxNDggMTcuNDMwMyAxMC41Njk4IDE3LjI4NTIgMTAuMzc3NCAxNy4xODIzQzEwLjEyNTMgMTcuMDQ3NiA5Ljg3OTA4IDE3IDkuMTE1NjMgMTdaTTIxLjExNTYgMTdIMTguODg0NEMxOC4xMjA5IDE3IDE3Ljg3NDcgMTcuMDQ3NiAxNy42MjI2IDE3LjE4MjNDMTcuNDMwMyAxNy4yODUyIDE3LjI4NTIgMTcuNDMwMyAxNy4xODIzIDE3LjYyMjdDMTcuMDQ3NiAxNy44NzQ3IDE3IDE4LjEyMDkgMTcgMTguODg0NFYyMS4xMTU2QzE3IDIxLjg3OTEgMTcuMDQ3NiAyMi4xMjUzIDE3LjE4MjMgMjIuMzc3NEMxNy4yODUyIDIyLjU2OTggMTcuNDMwMyAyMi43MTQ4IDE3LjYyMjYgMjIuODE3N0MxNy44NzQ3IDIyLjk1MjUgMTguMTIwOSAyMyAxOC44ODQ0IDIzSDIxLjExNTZDMjEuODc5MSAyMyAyMi4xMjUzIDIyLjk1MjUgMjIuMzc3NCAyMi44MTc3QzIyLjU2OTcgMjIuNzE0OCAyMi43MTQ4IDIyLjU2OTggMjIuODE3NyAyMi4zNzc0QzIyLjk1MjQgMjIuMTI1MyAyMyAyMS44NzkxIDIzIDIxLjExNTZWMTguODg0NEMyMyAxOC4xMjA5IDIyLjk1MjQgMTcuODc0NyAyMi44MTc3IDE3LjYyMjdDMjIuNzE0OCAxNy40MzAzIDIyLjU2OTcgMTcuMjg1MiAyMi4zNzc0IDE3LjE4MjNDMjIuMTI1MyAxNy4wNDc2IDIxLjg3OTEgMTcgMjEuMTE1NiAxN1pNMjAuODkxNSAyLjQxMjU3QzIxLjUyMjQgMi42MDM4MSAyMS45OTMzIDIuOTIyMjcgMjIuNzQ2NyAzLjY3NTYxTDI0LjMyNDQgNS4yNTMzNUMyNS4wNzc3IDYuMDA2NjggMjUuMzk2MiA2LjQ3NzU4IDI1LjU4NzQgNy4xMDg1M0MyNS43NjU0IDcuNjk1NTkgMjUuNzY1NCA4LjMwNDQzIDI1LjU4NzQgOC44OTE0OUMyNS4zOTYyIDkuNTIyNDQgMjUuMDc3NyA5Ljk5MzM0IDI0LjMyNDQgMTAuNzQ2N0wyMi43NDY3IDEyLjMyNDRDMjEuOTkzMyAxMy4wNzc4IDIxLjUyMjQgMTMuMzk2MiAyMC44OTE1IDEzLjU4NzVDMjAuMzA0NCAxMy43NjU0IDE5LjY5NTYgMTMuNzY1NCAxOS4xMDg1IDEzLjU4NzVDMTguNDc3NiAxMy4zOTYyIDE4LjAwNjcgMTMuMDc3OCAxNy4yNTMzIDEyLjMyNDRMMTUuNjc1NiAxMC43NDY3QzE0LjkyMjMgOS45OTMzNCAxNC42MDM4IDkuNTIyNDQgMTQuNDEyNiA4Ljg5MTQ5QzE0LjIzNDYgOC4zMDQ0MyAxNC4yMzQ2IDcuNjk1NTkgMTQuNDEyNiA3LjEwODUzQzE0LjYwMzggNi40Nzc1OCAxNC45MjIzIDYuMDA2NjggMTUuNjc1NiA1LjI1MzM1TDE3LjI1MzMgMy42NzU2MUMxOC4wMDY3IDIuOTIyMjcgMTguNDc3NiAyLjYwMzgxIDE5LjEwODUgMi40MTI1N0MxOS42OTU2IDIuMjM0NjMgMjAuMzA0NCAyLjIzNDYzIDIwLjg5MTUgMi40MTI1N1pNOS4xMTU2MyAzLjAwMDAxQzEwLjE4MSAzLjAwMDAxIDEwLjczOTIgMy4xMDc4IDExLjMyMDUgMy40MTg3MkMxMS44NjE1IDMuNzA4MDIgMTIuMjkyIDQuMTM4NTIgMTIuNTgxMyA0LjY3OTQ2QzEyLjg5MjIgNS4yNjA4NCAxMyA1LjgxOSAxMyA2Ljg4NDM4VjkuMTE1NjRDMTMgMTAuMTgxIDEyLjg5MjIgMTAuNzM5MiAxMi41ODEzIDExLjMyMDZDMTIuMjkyIDExLjg2MTUgMTEuODYxNSAxMi4yOTIgMTEuMzIwNSAxMi41ODEzQzEwLjczOTIgMTIuODkyMiAxMC4xODEgMTMgOS4xMTU2MyAxM0g2Ljg4NDM3QzUuODE4OTkgMTMgNS4yNjA4MyAxMi44OTIyIDQuNjc5NDUgMTIuNTgxM0M0LjEzODUxIDEyLjI5MiAzLjcwODAxIDExLjg2MTUgMy40MTg3MSAxMS4zMjA2QzMuMTA3NzkgMTAuNzM5MiAzIDEwLjE4MSAzIDkuMTE1NjRWNi44ODQzOEMzIDUuODE5IDMuMTA3NzkgNS4yNjA4NCAzLjQxODcxIDQuNjc5NDZDMy43MDgwMSA0LjEzODUyIDQuMTM4NTEgMy43MDgwMiA0LjY3OTQ1IDMuNDE4NzJDNS4yNjA4MyAzLjEwNzggNS44MTg5OSAzLjAwMDAxIDYuODg0MzcgMy4wMDAwMUg5LjExNTYzWk0xOS42ODg3IDQuMzI2NThDMTkuNDE1MSA0LjQwOTQ4IDE5LjIwNzQgNC41NDk5OCAxOC42Njc1IDUuMDg5ODJMMTcuMDg5OCA2LjY2NzU2QzE2LjU1IDcuMjA3NCAxNi40MDk1IDcuNDE1MTQgMTYuMzI2NiA3LjY4ODY2QzE2LjI2MzMgNy44OTc0NyAxNi4yNjMzIDguMTAyNTUgMTYuMzI2NiA4LjMxMTM2QzE2LjQwOTUgOC41ODQ4OCAxNi41NSA4Ljc5MjYyIDE3LjA4OTggOS4zMzI0NkwxOC42Njc1IDEwLjkxMDJDMTkuMjA3NCAxMS40NSAxOS40MTUxIDExLjU5MDUgMTkuNjg4NyAxMS42NzM0QzE5Ljg5NzUgMTEuNzM2NyAyMC4xMDI1IDExLjczNjcgMjAuMzExMyAxMS42NzM0QzIwLjU4NDkgMTEuNTkwNSAyMC43OTI2IDExLjQ1IDIxLjMzMjUgMTAuOTEwMkwyMi45MTAyIDkuMzMyNDZDMjMuNDUgOC43OTI2MiAyMy41OTA1IDguNTg0ODggMjMuNjczNCA4LjMxMTM2QzIzLjczNjcgOC4xMDI1NSAyMy43MzY3IDcuODk3NDcgMjMuNjczNCA3LjY4ODY2QzIzLjU5MDUgNy40MTUxNCAyMy40NSA3LjIwNzQgMjIuOTEwMiA2LjY2NzU2TDIxLjMzMjUgNS4wODk4MkMyMC43OTI2IDQuNTQ5OTggMjAuNTg0OSA0LjQwOTQ4IDIwLjMxMTMgNC4zMjY1OEMyMC4xMDI1IDQuMjYzMjkgMTkuODk3NSA0LjI2MzI5IDE5LjY4ODcgNC4zMjY1OFpNOS4xMTU2MyA1LjAwMDAxSDYuODg0MzdDNi4xMjA5MiA1LjAwMDAxIDUuODc0NjggNS4wNDc1NiA1LjYyMjY1IDUuMTgyMzVDNS40MzAyNSA1LjI4NTI0IDUuMjg1MjMgNS40MzAyNiA1LjE4MjM0IDUuNjIyNjZDNS4wNDc1NSA1Ljg3NDY5IDUgNi4xMjA5MyA1IDYuODg0MzhWOS4xMTU2NEM1IDkuODc5MDkgNS4wNDc1NSAxMC4xMjUzIDUuMTgyMzQgMTAuMzc3NEM1LjI4NTIzIDEwLjU2OTggNS40MzAyNSAxMC43MTQ4IDUuNjIyNjUgMTAuODE3N0M1Ljg3NDY4IDEwLjk1MjUgNi4xMjA5MiAxMSA2Ljg4NDM3IDExSDkuMTE1NjNDOS44NzkwOCAxMSAxMC4xMjUzIDEwLjk1MjUgMTAuMzc3NCAxMC44MTc3QzEwLjU2OTggMTAuNzE0OCAxMC43MTQ4IDEwLjU2OTggMTAuODE3NyAxMC4zNzc0QzEwLjk1MjQgMTAuMTI1MyAxMSA5Ljg3OTA5IDExIDkuMTE1NjRWNi44ODQzOEMxMSA2LjEyMDkzIDEwLjk1MjQgNS44NzQ2OSAxMC44MTc3IDUuNjIyNjZDMTAuNzE0OCA1LjQzMDI2IDEwLjU2OTggNS4yODUyNCAxMC4zNzc0IDUuMTgyMzVDMTAuMTI1MyA1LjA0NzU2IDkuODc5MDggNS4wMDAwMSA5LjExNTYzIDUuMDAwMDFaIi8+JiN4YTs8L3N2Zz4=;fontFamily=VK Sans Display;fontSize=16;" parent="1" vertex="1">
          <mxGeometry x="777" y="175" width="25" height="25" as="geometry" />
        </mxCell>
        <mxCell id="jRilrKlYuMYI4CO05IN_-20" value="" style="endArrow=open;html=1;fontFamily=VK Sans Display;fontColor=#212121;rounded=0;strokeColor=#EFAE98;endFill=0;strokeWidth=2;arcSize=8;entryX=1;entryY=0.5;entryDx=0;entryDy=0;exitX=0;exitY=0.5;exitDx=0;exitDy=0;" parent="1" source="eu7MMjktqyccipGJXbMi-27" target="jRilrKlYuMYI4CO05IN_-24" edge="1">
          <mxGeometry width="50" height="50" relative="1" as="geometry">
            <mxPoint x="764" y="456.5" as="sourcePoint" />
            <mxPoint x="450" y="456.5" as="targetPoint" />
          </mxGeometry>
        </mxCell>
        <mxCell id="jRilrKlYuMYI4CO05IN_-24" value="UI load balancer" style="shape=image;verticalLabelPosition=bottom;labelBackgroundColor=none;verticalAlign=top;aspect=fixed;imageAspect=0;image=data:image/svg+xml,PHN2ZyB4bWxucz0iaHR0cDovL3d3dy53My5vcmcvMjAwMC9zdmciIGZpbGw9Im5vbmUiIHZpZXdCb3g9IjAgMCAyOCAyOCIgaGVpZ2h0PSIyOCIgd2lkdGg9IjI4Ij4mI3hhOzxwYXRoIGZpbGw9IiMwMDc3RkYiIGQ9Ik0xMi41NDE3IDhDMTIuNTQxNyAxMC40ODUzIDEwLjU4MjkgMTIuNSA4LjE2NjY4IDEyLjVDNS43NTA0MyAxMi41IDMuNzkxNjggMTAuNDg1MyAzLjc5MTY4IDhDMy43OTE2OCA1LjUxNDcyIDUuNzUwNDMgMy41IDguMTY2NjggMy41QzEwLjU4MjkgMy41IDEyLjU0MTcgNS41MTQ3MiAxMi41NDE3IDhaTTEwLjM1NDIgOEMxMC4zNTQyIDkuMjQyNjQgOS4zNzQ4IDEwLjI1IDguMTY2NjggMTAuMjVDNi45NTg1NSAxMC4yNSA1Ljk3OTE4IDkuMjQyNjQgNS45NzkxOCA4QzUuOTc5MTggNi43NTczNiA2Ljk1ODU1IDUuNzUgOC4xNjY2OCA1Ljc1QzkuMzc0OCA1Ljc1IDEwLjM1NDIgNi43NTczNiAxMC4zNTQyIDhaIiBjbGlwLXJ1bGU9ImV2ZW5vZGQiIGZpbGwtcnVsZT0iZXZlbm9kZCIvPiYjeGE7PHBhdGggZmlsbD0iIzAwNzdGRiIgZD0iTTE5LjgzMzMgMTIuNUMyMi4yNDk2IDEyLjUgMjQuMjA4MyAxMC40ODUzIDI0LjIwODMgOEMyNC4yMDgzIDUuNTE0NzIgMjIuMjQ5NiAzLjUgMTkuODMzMyAzLjVDMTcuNDE3MSAzLjUgMTUuNDU4MyA1LjUxNDcyIDE1LjQ1ODMgOEMxNS40NTgzIDEwLjQ4NTMgMTcuNDE3MSAxMi41IDE5LjgzMzMgMTIuNVpNMjIuMDIwOCA4QzIyLjAyMDggOS4yNDI2NCAyMS4wNDE1IDEwLjI1IDE5LjgzMzMgMTAuMjVDMTguNjI1MiAxMC4yNSAxNy42NDU4IDkuMjQyNjQgMTcuNjQ1OCA4QzE3LjY0NTggNi43NTczNiAxOC42MjUyIDUuNzUgMTkuODMzMyA1Ljc1QzIxLjA0MTUgNS43NSAyMi4wMjA4IDYuNzU3MzYgMjIuMDIwOCA4WiIgY2xpcC1ydWxlPSJldmVub2RkIiBmaWxsLXJ1bGU9ImV2ZW5vZGQiLz4mI3hhOzxwYXRoIGZpbGw9IiMwMDc3RkYiIGQ9Ik0xOS44MzMzIDEyLjVIOC4xNjY2OEgzLjQyNzA5QzIuODIzMDMgMTIuNSAyLjMzMzM0IDEzLjAwMzcgMi4zMzMzNCAxMy42MjVDMi4zMzMzNCAxNC4yNDYzIDIuODIzMDMgMTQuNzUgMy40MjcwOSAxNC43NUgyNC41NzI5QzI1LjE3NyAxNC43NSAyNS42NjY3IDE0LjI0NjMgMjUuNjY2NyAxMy42MjVDMjUuNjY2NyAxMy4wMDM3IDI1LjE3NyAxMi41IDI0LjU3MjkgMTIuNUgxOS44MzMzWiIvPiYjeGE7PHBhdGggZmlsbD0iIzAwNzdGRiIgZD0iTTEyLjczNyAxNS41QzEzLjI5ODMgMTQuNSAxNC43MDE2IDE0LjUgMTUuMjYyOSAxNS41TDE5LjA1MTggMjIuMjVDMTkuNjEzMSAyMy4yNSAxOC45MTE1IDI0LjUgMTcuNzg4OCAyNC41SDEwLjIxMTFDOS4wODg0OCAyNC41IDguMzg2ODQgMjMuMjUgOC45NDgxNSAyMi4yNUwxMi43MzcgMTUuNVpNMTEuNDc0MSAyMi4yNUwxNCAxNy43NUwxNi41MjU5IDIyLjI1SDExLjQ3NDFaIiBjbGlwLXJ1bGU9ImV2ZW5vZGQiIGZpbGwtcnVsZT0iZXZlbm9kZCIvPiYjeGE7PC9zdmc+;fontSize=16;fontFamily=VK Sans Display;spacingTop=-6;" parent="1" vertex="1">
          <mxGeometry x="608" y="443" width="28" height="28" as="geometry" />
        </mxCell>
        <mxCell id="A4W8CHroqn7QWFzIHlkb-3" value="" style="endArrow=open;html=1;fontFamily=VK Sans Display;fontColor=#212121;rounded=0;strokeColor=#87D6E8;endFill=0;strokeWidth=2;arcSize=8;entryX=1;entryY=0.5;entryDx=0;entryDy=0;exitX=0;exitY=0.5;exitDx=0;exitDy=0;" parent="1" source="eu7MMjktqyccipGJXbMi-15" target="jRilrKlYuMYI4CO05IN_-7" edge="1">
          <mxGeometry width="50" height="50" relative="1" as="geometry">
            <mxPoint x="585" y="315.5" as="sourcePoint" />
            <mxPoint x="444" y="314.5" as="targetPoint" />
          </mxGeometry>
        </mxCell>
        <mxCell id="A4W8CHroqn7QWFzIHlkb-4" value="" style="endArrow=open;html=1;fontFamily=VK Sans Display;fontColor=#212121;rounded=0;strokeColor=#EFAE98;endFill=0;strokeWidth=2;arcSize=8;exitX=0;exitY=0.5;exitDx=0;exitDy=0;entryX=1;entryY=0.5;entryDx=0;entryDy=0;" parent="1" source="jRilrKlYuMYI4CO05IN_-24" target="eu7MMjktqyccipGJXbMi-17" edge="1">
          <mxGeometry width="50" height="50" relative="1" as="geometry">
            <mxPoint x="601" y="456.5" as="sourcePoint" />
            <mxPoint x="500" y="457" as="targetPoint" />
          </mxGeometry>
        </mxCell>
        <mxCell id="A4W8CHroqn7QWFzIHlkb-5" value="" style="endArrow=open;html=1;fontFamily=VK Sans Display;fontColor=#212121;rounded=0;strokeColor=#EFAE98;endFill=0;strokeWidth=2;arcSize=8;exitX=0.5;exitY=0;exitDx=0;exitDy=0;" parent="1" source="eu7MMjktqyccipGJXbMi-17" edge="1">
          <mxGeometry width="50" height="50" relative="1" as="geometry">
            <mxPoint x="422" y="422.5" as="sourcePoint" />
            <mxPoint x="422" y="370" as="targetPoint" />
          </mxGeometry>
        </mxCell>
        <mxCell id="A4W8CHroqn7QWFzIHlkb-7" value="Databases" style="shape=image;verticalLabelPosition=bottom;labelBackgroundColor=default;verticalAlign=top;aspect=fixed;imageAspect=0;image=data:image/svg+xml,PHN2ZyB4bWxucz0iaHR0cDovL3d3dy53My5vcmcvMjAwMC9zdmciIGZpbGw9Im5vbmUiIHZpZXdCb3g9IjAgMCAyOCAyOCIgaGVpZ2h0PSIyOCIgd2lkdGg9IjI4Ij4mI3hhOzxwYXRoIGZpbGw9IiMwMDc3RkYiIGQ9Ik00LjcwMDg4IDYuOTc3NDNDNC44MzA1MyA3Ljk4Mjc0IDUuMzE0MjIgOC44NzA1MSA2LjAyMDg3IDkuNTA2OTVDNS4zMTQyMiAxMC4xNDM0IDQuODMwNTMgMTEuMDMxMSA0LjcwMDg4IDEyLjAzNjVDNC42NjY2NiAxMi4zMDE4IDQuNjY2NjYgMTIuNjE3OSA0LjY2NjY2IDEzLjI1QzQuNjY2NjYgMTMuODgyMSA0LjY2NjY2IDE0LjE5ODIgNC43MDA4OCAxNC40NjM1QzQuODMwNTMgMTUuNDY4OSA1LjMxNDIyIDE2LjM1NjYgNi4wMjA4NyAxNi45OTMxQzUuMzE0MjIgMTcuNjI5NSA0LjgzMDUzIDE4LjUxNzMgNC43MDA4OCAxOS41MjI2QzQuNjY2NjYgMTkuNzg3OSA0LjY2NjY2IDIwLjEwNCA0LjY2NjY2IDIwLjczNjFDNC42NjY2NiAyMS4zNjgyIDQuNjY2NjYgMjEuNjg0MyA0LjcwMDg4IDIxLjk0OTZDNC45MzcxOCAyMy43ODIgNi4zNDk2MiAyNS4yMjM4IDguMTQ0NTUgMjUuNDY1MUM4LjQwNDQ4IDI1LjUgOC43MTQxIDI1LjUgOS4zMzMzMiAyNS41SDkuOTc5MTdDMTAuNTQzIDI1LjUgMTEgMjUuMDQzIDExIDI0LjQ3OTJDMTEgMjMuOTE1NCAxMC41NDMgMjMuNDU4MyA5Ljk3OTE3IDIzLjQ1ODNIOS4zMzMzMkM4LjY1MDUyIDIzLjQ1ODMgOC41MDI4MSAyMy40NTM5IDguNDA1NiAyMy40NDA5QzcuNTA4MTQgMjMuMzIwMyA2LjgwMTkyIDIyLjU5OTMgNi42ODM3NyAyMS42ODMyQzYuNjcwOTcgMjEuNTgzOSA2LjY2NjY2IDIxLjQzMzEgNi42NjY2NiAyMC43MzYxQzYuNjY2NjYgMjAuMDM5MSA2LjY3MDk3IDE5Ljg4ODMgNi42ODM3NyAxOS43ODkxQzYuODAxOTIgMTguODcyOSA3LjUwODE0IDE4LjE1MiA4LjQwNTYgMTguMDMxNEM4LjUwMjgxIDE4LjAxODMgOC42NTA1MyAxOC4wMTM5IDkuMzMzMzIgMTguMDEzOUgxMkgxN0gxOS41OTQ0QzIyLjA4NTUgMTguMDEzOSAyMy4xNzI2IDE2LjE3NjggMjMuMjk5MSAxNC40NjM1QzIzLjMzMzMgMTQgMjMuMzMzMyAxMy44ODIxIDIzLjMzMzMgMTMuMjVDMjMuMzMzMyAxMi42MTc5IDIzLjMzMzMgMTIuMzAxOCAyMy4yOTkxIDEyLjAzNjVDMjMuMTY5NCAxMS4wMzExIDIyLjY4NTggMTAuMTQzNCAyMS45NzkxIDkuNTA2OTVDMjIuNjg1OCA4Ljg3MDUxIDIzLjE2OTQgNy45ODI3NCAyMy4yOTkxIDYuOTc3NDNDMjMuMzMzMyA2LjcxMjA4IDIzLjMzMzMgNi4zOTYwMiAyMy4zMzMzIDUuNzYzODlDMjMuMzMzMyA1LjEzMTc2IDIzLjMzMzMgNC44MTU3IDIzLjI5OTEgNC41NTAzNUMyMy4wNjI4IDIuNzE4MDIgMjEuNjUwNCAxLjI3NjE2IDE5Ljg1NTQgMS4wMzQ5M0MxOS41OTU1IDEgMTkuMjg1OSAxIDE4LjY2NjcgMUg5LjMzMzMyQzguNzE0MSAxIDguNDA0NDggMSA4LjE0NDU1IDEuMDM0OTNDNi4zNDk2MiAxLjI3NjE2IDQuOTM3MTggMi43MTgwMiA0LjcwMDg4IDQuNTUwMzVDNC42NjY2NiA0LjgxNTcgNC42NjY2NiA1LjEzMTc2IDQuNjY2NjYgNS43NjM4OUM0LjY2NjY2IDYuMzk2MDIgNC42NjY2NiA2LjcxMjA4IDQuNzAwODggNi45Nzc0M1pNMTguNjY2NyAzLjA0MTY3SDkuMzMzMzJDOC42NTA1MyAzLjA0MTY3IDguNTAyODEgMy4wNDYwNyA4LjQwNTYgMy4wNTkxM0M3LjUwODE0IDMuMTc5NzUgNi44MDE5MiAzLjkwMDY4IDYuNjgzNzcgNC44MTY4NEM2LjY3MDk3IDQuOTE2MDcgNi42NjY2NiA1LjA2Njg3IDYuNjY2NjYgNS43NjM4OUM2LjY2NjY2IDYuNDYwOTEgNi42NzA5NyA2LjYxMTcxIDYuNjgzNzcgNi43MTA5NEM2LjgwMTkyIDcuNjI3MSA3LjUwODE0IDguMzQ4MDMgOC40MDU2IDguNDY4NjRDOC41MDI4MSA4LjQ4MTcxIDguNjUwNTIgOC40ODYxMSA5LjMzMzMyIDguNDg2MTFIMTguNjY2N0MxOS4zNDk1IDguNDg2MTEgMTkuNDk3MiA4LjQ4MTcxIDE5LjU5NDQgOC40Njg2NEMyMC40OTE4IDguMzQ4MDMgMjEuMTk4MSA3LjYyNzEgMjEuMzE2MiA2LjcxMDk0QzIxLjMyOSA2LjYxMTcxIDIxLjMzMzMgNi40NjA5MSAyMS4zMzMzIDUuNzYzODlDMjEuMzMzMyA1LjA2Njg3IDIxLjMyOSA0LjkxNjA3IDIxLjMxNjIgNC44MTY4NEMyMS4xOTgxIDMuOTAwNjggMjAuNDkxOCAzLjE3OTc1IDE5LjU5NDQgMy4wNTkxM0MxOS40OTcyIDMuMDQ2MDcgMTkuMzQ5NSAzLjA0MTY3IDE4LjY2NjcgMy4wNDE2N1pNMTguNjY2NyAxNS45NzIyQzE5LjM0OTUgMTUuOTcyMiAxOS40OTcyIDE1Ljk2NzggMTkuNTk0NCAxNS45NTQ4QzIwLjQ5MTggMTUuODM0MSAyMS4xOTgxIDE1LjExMzIgMjEuMzE2MiAxNC4xOTdDMjEuMzI5IDE0LjA5NzggMjEuMzMzMyAxMy45NDcgMjEuMzMzMyAxMy4yNUMyMS4zMzMzIDEyLjU1MyAyMS4zMjkgMTIuNDAyMiAyMS4zMTYyIDEyLjMwM0MyMS4xOTgxIDExLjM4NjggMjAuNDkxOCAxMC42NjU5IDE5LjU5NDQgMTAuNTQ1MkMxOS40OTcyIDEwLjUzMjIgMTkuMzQ5NSAxMC41Mjc4IDE4LjY2NjcgMTAuNTI3OEg5LjMzMzMyQzguNjUwNTMgMTAuNTI3OCA4LjUwMjgxIDEwLjUzMjIgOC40MDU2IDEwLjU0NTJDNy41MDgxNCAxMC42NjU5IDYuODAxOTIgMTEuMzg2OCA2LjY4Mzc3IDEyLjMwM0M2LjY3MDk3IDEyLjQwMjIgNi42NjY2NiAxMi41NTMgNi42NjY2NiAxMy4yNUM2LjY2NjY2IDEzLjk0NyA2LjY3MDk3IDE0LjA5NzggNi42ODM3NyAxNC4xOTdDNi44MDE5MiAxNS4xMTMyIDcuNTA4MTQgMTUuODM0MSA4LjQwNTYgMTUuOTU0OEM4LjUwMjgxIDE1Ljk2NzggOC42NTA1MiAxNS45NzIyIDkuMzMzMzIgMTUuOTcyMkgxMkgxOC42NjY3Wk0xMi42ODMxIDIwLjE3MzZDMTIuODUwNSAyMC4wMDg4IDEzLjA2MzIgMTkuOTI2MyAxMy4yOTM4IDE5LjkyNjNIMTQuODM0NkMxNS4zNjk3IDE5LjkyNjMgMTUuODY3NSAyMC4wMTY1IDE2LjMyMiAyMC4yMDQyQzE2Ljc3NjggMjAuMzg0IDE3LjE3NDkgMjAuNjQ1NyAxNy41MTE5IDIwLjk4ODdDMTcuODQ5MSAyMS4zMjYzIDE4LjEwNzIgMjEuNzI0NyAxOC4yODY0IDIyLjE3OTFDMTguNDY3MiAyMi42Mzc3IDE4LjU1NDQgMjMuMTM3IDE4LjU1NDQgMjMuNjcxN0MxOC41NTQ0IDI0LjIwNjUgMTguNDY3MiAyNC43MDc5IDE4LjI4NzEgMjUuMTcwOUwxOC4yODY0IDI1LjE3MjhDMTguMTA3MiAyNS42MjcyIDE3Ljg0OTQgMjYuMDI3NyAxNy41MTMzIDI2LjM3MDJMMTcuNTEwNSAyNi4zNzMxQzE3LjE3MzYgMjYuNzEgMTYuNzc2NCAyNi45NzA2IDE2LjMyMzQgMjcuMTU1N0wxNi4zMjA2IDI3LjE1NjhDMTUuODY2NSAyNy4zMzg1IDE1LjM2OTIgMjcuNDI1NiAxNC44MzQ2IDI3LjQyNTZIMTMuMjkzOEMxMy4wNjA4IDI3LjQyNTYgMTIuODQ2MSAyNy4zNDE1IDEyLjY3NzkgMjcuMTczM0MxMi41MDk4IDI3LjAwNTEgMTIuNDI1NiAyNi43OTA0IDEyLjQyNTYgMjYuNTU3NFYyMC43OTQ2QzEyLjQyNTYgMjAuNTY0MSAxMi41MDQ2IDIwLjM0MyAxMi42ODMxIDIwLjE3MzZaTTI0Ljc4MzUgMjMuMzA2M0MyNC45MzI4IDIzLjQwNyAyNS4wNjgxIDIzLjUyNzUgMjUuMTg3OSAyMy42NjgyQzI1LjQ5NDYgMjQuMDI4NiAyNS42Mjk5IDI0LjQ4MyAyNS42Mjk5IDI0Ljk5MTFDMjUuNjI5OSAyNS40NTI1IDI1LjUxODggMjUuODc3NCAyNS4yODYyIDI2LjI1MkMyNS4wNjI2IDI2LjYyMTMgMjQuNzQ5MyAyNi45MTA4IDI0LjM1NzkgMjcuMTJMMjQuMzUyOCAyNy4xMjI3QzIzLjk1NDggMjcuMzI4NiAyMy41MDg2IDI3LjQyNTYgMjMuMDI1MSAyNy40MjU2SDIwLjgxMTlDMjAuNTc4OSAyNy40MjU2IDIwLjM2NDIgMjcuMzQxNSAyMC4xOTYgMjcuMTczM0MyMC4wMjc4IDI3LjAwNTEgMTkuOTQzNyAyNi43OTA0IDE5Ljk0MzcgMjYuNTU3NFYyMC43OTQ2QzE5Ljk0MzcgMjAuNTY0MSAyMC4wMjI3IDIwLjM0MyAyMC4yMDExIDIwLjE3MzZDMjAuMzY4NSAyMC4wMDg4IDIwLjU4MTIgMTkuOTI2MyAyMC44MTE5IDE5LjkyNjNIMjIuODQ2M0MyMy4yODc1IDE5LjkyNjMgMjMuNjk0MyAyMC4wMTM4IDI0LjA1NDEgMjAuMjAzM0MyNC40MTMgMjAuMzgzNyAyNC43MDE5IDIwLjY0MTkgMjQuOTA5MyAyMC45NzY5QzI1LjEyNjEgMjEuMzE3NyAyNS4yMjk4IDIxLjcwNDIgMjUuMjI5OCAyMi4xMjI1QzI1LjIyOTggMjIuNDgzNiAyNS4xMjg4IDIyLjgxOSAyNC45Mjc3IDIzLjExNzNMMjQuNzgzNSAyMy4zMDYzWk0xNC4xNjIxIDIxLjU2MDdWMjUuNzkxM0gxNC44MzQ2QzE1LjI0NDQgMjUuNzkxMyAxNS41ODcxIDI1LjY5OTQgMTUuODc2MiAyNS41Mjc5QzE2LjE3OTMgMjUuMzQ1OSAxNi40MTU2IDI1LjEwMDkgMTYuNTg5NCAyNC43ODY1QzE2Ljc2MSAyNC40NzA3IDE2Ljg1MiAyNC4xMDI3IDE2Ljg1MiAyMy42NzE3QzE2Ljg1MiAyMy4yMzM0IDE2Ljc2MDMgMjIuODY2NCAxNi41OTAxIDIyLjU1OEMxNi40MTY1IDIyLjI0MzggMTYuMTgxMSAyMi4wMDIyIDE1Ljg3OTYgMjEuODI1OUwxNS44NzcxIDIxLjgyNDVDMTUuNTg3OCAyMS42NTI3IDE1LjI0NDggMjEuNTYwNyAxNC44MzQ2IDIxLjU2MDdIMTQuMTYyMVpNMjEuNjgwMiAyMS41OTQ3VjIyLjY1ODdIMjIuODQ2M0MyMy4wOTkzIDIyLjY1ODcgMjMuMjY0MSAyMi41OTc2IDIzLjM3NjcgMjIuNTFMMjMuMzgxMSAyMi41MDY2QzIzLjQ2MDQgMjIuNDQ2NiAyMy41MjczIDIyLjM0NjUgMjMuNTI3MyAyMi4xMjI1QzIzLjUyNzMgMjEuODk3OCAyMy40NjA0IDIxLjgwNDcgMjMuMzg3MSAyMS43NTEyTDIzLjM3NjYgMjEuNzQzNkMyMy4yNjQgMjEuNjU2IDIzLjA5OTMgMjEuNTk0NyAyMi44NDYzIDIxLjU5NDdIMjEuNjgwMlpNMjEuNjgwMiAyNC4zMjcxVjI1Ljc1NzJIMjMuMDI1MUMyMy4yMzY4IDI1Ljc1NzIgMjMuNDA0MyAyNS43MjA1IDIzLjUzNzYgMjUuNjU5NUMyMy42NjU3IDI1LjYwMSAyMy43NTc3IDI1LjUyMDQgMjMuODI1MSAyNS40MTU4QzIzLjg4NDQgMjUuMzIzOSAyMy45Mjc0IDI1LjE5MDUgMjMuOTI3NCAyNC45OTExQzIzLjkyNzQgMjQuODEzNCAyMy44ODY3IDI0LjcwNDUgMjMuODM2NCAyNC42MzQxQzIzLjc3NDcgMjQuNTQ3OCAyMy42ODcgMjQuNDc2NiAyMy41NTY1IDI0LjQyNDRMMjMuNTQ2OSAyNC40MjA1QzIzLjQxMTEgMjQuMzYyMyAyMy4yNDAyIDI0LjMyNzEgMjMuMDI1MSAyNC4zMjcxSDIxLjY4MDJaIiBjbGlwLXJ1bGU9ImV2ZW5vZGQiIGZpbGwtcnVsZT0iZXZlbm9kZCIvPiYjeGE7PC9zdmc+;fontSize=16;fontFamily=VK Sans Display;" parent="1" vertex="1">
          <mxGeometry x="775.5" y="301" width="28" height="28" as="geometry" />
        </mxCell>
        <mxCell id="A4W8CHroqn7QWFzIHlkb-8" value="" style="endArrow=open;html=1;fontFamily=VK Sans Display;fontColor=#212121;rounded=0;strokeColor=#87D6E8;endFill=0;strokeWidth=2;arcSize=8;entryX=0;entryY=0.5;entryDx=0;entryDy=0;exitX=1;exitY=0.5;exitDx=0;exitDy=0;" parent="1" source="eu7MMjktqyccipGJXbMi-15" target="A4W8CHroqn7QWFzIHlkb-7" edge="1">
          <mxGeometry width="50" height="50" relative="1" as="geometry">
            <mxPoint x="775.5" y="314.5" as="sourcePoint" />
            <mxPoint x="690" y="315" as="targetPoint" />
          </mxGeometry>
        </mxCell>
        <mxCell id="A4W8CHroqn7QWFzIHlkb-9" value="" style="endArrow=open;html=1;fontFamily=VK Sans Display;fontColor=#212121;rounded=1;strokeColor=#87D6E8;endFill=0;strokeWidth=2;arcSize=12;exitX=0;exitY=0.5;exitDx=0;exitDy=0;entryX=0.5;entryY=0;entryDx=0;entryDy=0;edgeStyle=orthogonalEdgeStyle;" parent="1" source="jRilrKlYuMYI4CO05IN_-11" target="jRilrKlYuMYI4CO05IN_-7" edge="1">
          <mxGeometry width="50" height="50" relative="1" as="geometry">
            <mxPoint x="567" y="325" as="sourcePoint" />
            <mxPoint x="446" y="325" as="targetPoint" />
          </mxGeometry>
        </mxCell>
        <mxCell id="A4W8CHroqn7QWFzIHlkb-10" value="" style="endArrow=open;html=1;fontFamily=VK Sans Display;fontColor=#212121;rounded=1;strokeColor=#EFAE98;endFill=0;strokeWidth=2;arcSize=12;exitX=0.5;exitY=0;exitDx=0;exitDy=0;entryX=0.5;entryY=1;entryDx=0;entryDy=0;edgeStyle=elbowEdgeStyle;elbow=vertical;" parent="1" source="eu7MMjktqyccipGJXbMi-17" target="eu7MMjktqyccipGJXbMi-15" edge="1">
          <mxGeometry width="50" height="50" relative="1" as="geometry">
            <mxPoint x="432" y="443" as="sourcePoint" />
            <mxPoint x="432" y="380" as="targetPoint" />
            <Array as="points">
              <mxPoint x="530" y="400" />
            </Array>
          </mxGeometry>
        </mxCell>
        <mxCell id="A4W8CHroqn7QWFzIHlkb-1" value="&lt;span style=&quot;font-size: 16px;&quot;&gt;&lt;font color=&quot;#efae98&quot; style=&quot;font-size: 16px;&quot;&gt;Service management&lt;/font&gt;&lt;/span&gt;" style="rounded=1;whiteSpace=wrap;html=1;strokeColor=#EFAE98;strokeWidth=1;fontColor=#212121;fillColor=none;dashed=1;fontFamily=VK Sans Display;verticalAlign=bottom;spacing=10;fontStyle=1;arcSize=12;absoluteArcSize=1;fontSize=16;" parent="1" vertex="1">
          <mxGeometry x="40" y="420" width="800" height="130" as="geometry" />
        </mxCell>
        <mxCell id="A4W8CHroqn7QWFzIHlkb-11" value="&lt;span style=&quot;font-size: 16px;&quot;&gt;&lt;font color=&quot;#87d6e8&quot; style=&quot;font-size: 16px;&quot;&gt;Reading / writing messages&lt;/font&gt;&lt;/span&gt;" style="rounded=1;whiteSpace=wrap;html=1;strokeColor=#87D6E8;strokeWidth=1;fontColor=#212121;fillColor=none;dashed=1;fontFamily=VK Sans Display;verticalAlign=top;spacing=10;fontStyle=1;arcSize=12;absoluteArcSize=1;fontSize=16;" parent="1" vertex="1">
          <mxGeometry x="40" y="40" width="800" height="370" as="geometry" />
        </mxCell>
      </root>
    </mxGraphModel>
  </diagram>
</mxfile>
